#!OML:ASF G:\JayActor3\Patient Classification 1\Patient 1\Session 2\male.ASF
:FULLY-SPECIFIED
:DEGREES
3870
root -32.2205 16.9195 -4.0149 4492.71 85.2417 -2711.48
lowerback -2.93456 -1.53727 -3.21654
upperback 2.29981 -1.89639 0.213199
thorax 4.13289 -1.03396 1.8984
lowerneck -7.56368 -2.36026 -2.42816
upperneck -7.21975 -2.39542 8.5532
head -0.839946 -1.05896 3.13089
rclavicle 1.26104e-015 -3.8266e-015
rhumerus -32.8302 -5.94253 -86.1629
rradius 30.177
rwrist -6.53462
rhand -21.4546 5.60199
rfingers 7.12502
rthumb 4.93545 -24.3205
lclavicle 1.26104e-015 -3.8266e-015
lhumerus -31.178 14.333 82.8836
lradius 15.8967
lwrist -2.51431
lhand -18.585 16.2049
lfingers 7.12502
lthumb 7.70575 46.0445
rfemur -25.3569 4.87325 23.9236
rtibia 33.3678
rfoot -15.6964 -10.7317
rtoes 21.346
lfemur 16.9389 7.29103 -20.201
ltibia 11.8253
lfoot 7.21771 -4.58924
ltoes -2.14871
3871
root -32.1197 16.9235 -4.00841 4493.47 85.0529 -2710.67
lowerback -2.96795 -1.54324 -3.11496
upperback 2.26541 -1.91025 0.240527
thorax 4.11406 -1.03795 1.86846
lowerneck -7.51478 -2.38073 -2.4506
upperneck -7.0729 -2.43549 8.584
head -0.7979 -1.07892 3.14351
rclavicle 1.05604e-014 -9.49197e-015
rhumerus -32.7913 -5.81201 -86.2093
rradius 30.3311
rwrist -6.66648
rhand -21.4652 5.59754
rfingers 7.12502
rthumb 4.92518 -24.3252
lclavicle 1.05604e-014 -9.49197e-015
lhumerus -31.4471 14.7002 82.6028
lradius 15.9302
lwrist -2.51389
lhand -18.529 16.2269
lfingers 7.12502
lthumb 7.7598 46.0646
rfemur -24.861 4.55682 24.0713
rtibia 33.329
rfoot -15.9468 -10.5827
rtoes 21.3011
lfemur 15.7608 7.51626 -19.8617
ltibia 14.4761
lfoot 7.67708 -4.77184
ltoes -1.38232
3872
root -32.0203 16.9278 -4.00195 4494.24 84.8601 -2709.84
lowerback -2.98856 -1.5489 -3.00579
upperback 2.23767 -1.92431 0.268773
thorax 4.09468 -1.04191 1.83544
lowerneck -7.49126 -2.40572 -2.47095
upperneck -6.92161 -2.4817 8.61267
head -0.749782 -1.10114 3.15455
rclavicle 3.91357e-015 -5.7896e-015
rhumerus -32.7257 -5.68508 -86.2567
rradius 30.4522
rwrist -6.76829
rhand -21.4709 5.5806
rfingers 7.12502
rthumb 4.91962 -24.3423
lclavicle 3.91357e-015 -5.7896e-015
lhumerus -31.6916 14.9849 82.3782
lradius 16.0369
lwrist -2.38378
lhand -18.4655 16.2993
lfingers 7.12502
lthumb 7.82102 46.1347
rfemur -24.3531 4.23113 24.2231
rtibia 33.259
rfoot -16.1733 -10.4289
rtoes 21.2627
lfemur 14.6454 7.75079 -19.5053
ltibia 16.9875
lfoot 8.25662 -4.8891
ltoes -0.587102
3873
root -31.9222 16.9324 -3.99536 4495.05 84.6692 -2708.96
lowerback -2.99415 -1.55144 -2.88728
upperback 2.21356 -1.93504 0.297999
thorax 4.07004 -1.04394 1.79877
lowerneck -7.47798 -2.43413 -2.49086
upperneck -6.77031 -2.53205 8.64571
head -0.699607 -1.12506 3.16683
rclavicle 1.98132e-014 -5.46658e-016
rhumerus -32.6427 -5.5657 -86.3048
rradius 30.5424
rwrist -6.84303
rhand -21.4693 5.55831
rfingers 7.12502
rthumb 4.92125 -24.3645
lclavicle 1.98132e-014 -5.46658e-016
lhumerus -31.9204 15.1782 82.2101
lradius 16.2223
lwrist -2.1208
lhand -18.3844 16.4019
lfingers 7.12502
lthumb 7.89935 46.2343
rfemur -23.8282 3.90897 24.3842
rtibia 33.1538
rfoot -16.3812 -10.2754
rtoes 21.2527
lfemur 13.5581 7.9814 -19.1333
ltibia 19.4302
lfoot 8.91546 -4.96552
ltoes 0.152382
3874
root -31.8256 16.9373 -3.98835 4495.96 84.467 -2707.99
lowerback -2.98996 -1.55238 -2.75617
upperback 2.19118 -1.94443 0.328015
thorax 4.04115 -1.04495 1.75619
lowerneck -7.4736 -2.46893 -2.50953
upperneck -6.61822 -2.59056 8.6858
head -0.647061 -1.15269 3.18102
rclavicle -8.58501e-015 6.58474e-016
rhumerus -32.5456 -5.4674 -86.3508
rradius 30.6031
rwrist -6.89155
rhand -21.465 5.52572
rfingers 7.12502
rthumb 4.92538 -24.397
lclavicle -8.58501e-015 6.58474e-016
lhumerus -32.1321 15.2695 82.1009
lradius 16.4884
lwrist -1.7327
lhand -18.2952 16.5349
lfingers 7.12502
lthumb 7.98547 46.3641
rfemur -23.2928 3.59759 24.5579
rtibia 33.0124
rfoot -16.5819 -10.136
rtoes 21.2957
lfemur 12.4699 8.17671 -18.7483
ltibia 21.8372
lfoot 9.6292 -5.01539
ltoes 0.824473
3875
root -31.7301 16.9423 -3.98124 4496.93 84.2702 -2706.95
lowerback -2.98353 -1.546 -2.61258
upperback 2.17441 -1.9446 0.360848
thorax 4.01599 -1.04119 1.71012
lowerneck -7.46517 -2.50871 -2.53025
upperneck -6.47694 -2.65427 8.73482
head -0.598159 -1.18296 3.19873
rclavicle -1.24551e-014 2.82026e-015
rhumerus -32.4388 -5.37689 -86.3922
rradius 30.6403
rwrist -6.9259
rhand -21.4554 5.48475
rfingers 7.12502
rthumb 4.93466 -24.4378
lclavicle -1.24551e-014 2.82026e-015
lhumerus -32.3297 15.2541 82.0594
lradius 16.84
lwrist -1.22129
lhand -18.2037 16.6442
lfingers 7.12502
lthumb 8.07375 46.47
rfemur -22.7405 3.29398 24.7463
rtibia 32.8368
rfoot -16.7692 -9.99647
rtoes 21.3402
lfemur 11.3781 8.33299 -18.3579
ltibia 24.2242
lfoot 10.368 -5.04607
ltoes 1.44364
